<svg xmlns="http://www.w3.org/2000/svg" width="403.5" height="271.666"><g fill="none" stroke="#FFF" stroke-width="8" stroke-linecap="round" stroke-miterlimit="10"><path d="M236 126h-28M222 112v28"/></g><path fill="#8585C6" d="M347.926 83.665c12.1.066 16.803 8.548 10.453 18.847l-39.624 64.261c-6.351 10.3-16.65 10.243-22.887-.126l-38.915-64.693c-6.237-10.369-1.44-18.797 10.66-18.731l80.313.442z" opacity=".85"/><path fill="#7777C6" d="M386.295 98.6c7.149.116 10.066 5.273 6.482 11.46l-34.87 60.192c-3.584 6.188-9.509 6.222-13.166.078l-36.869-61.94c-3.657-6.144-.8-11.076 6.35-10.96l72.073 1.17z" opacity=".85"/><path fill="#FCFCFC" d="M371 123.405c0 .881-.714 1.595-1.595 1.595h-2.81a1.595 1.595 0 01-1.595-1.595v-2.81c0-.881.714-1.595 1.595-1.595h2.81c.881 0 1.595.714 1.595 1.595v2.81zM363 123.405c0 .881-.714 1.595-1.595 1.595h-2.81a1.595 1.595 0 01-1.595-1.595v-2.81c0-.881.714-1.595 1.595-1.595h2.81c.881 0 1.595.714 1.595 1.595v2.81zM371 115.405c0 .881-.714 1.595-1.595 1.595h-2.81a1.595 1.595 0 01-1.595-1.595v-2.81c0-.881.714-1.595 1.595-1.595h2.81c.881 0 1.595.714 1.595 1.595v2.81zM363 115.405c0 .881-.714 1.595-1.595 1.595h-2.81a1.595 1.595 0 01-1.595-1.595v-2.81c0-.881.714-1.595 1.595-1.595h2.81c.881 0 1.595.714 1.595 1.595v2.81zM379 115.405c0 .881-.714 1.595-1.595 1.595h-2.81a1.595 1.595 0 01-1.595-1.595v-2.81c0-.881.714-1.595 1.595-1.595h2.81c.881 0 1.595.714 1.595 1.595v2.81zM379 123.405c0 .881-.714 1.595-1.595 1.595h-2.81a1.595 1.595 0 01-1.595-1.595v-2.81c0-.881.714-1.595 1.595-1.595h2.81c.881 0 1.595.714 1.595 1.595v2.81zM379 107.405c0 .881-.714 1.595-1.595 1.595h-2.81a1.595 1.595 0 01-1.595-1.595v-2.81c0-.881.714-1.595 1.595-1.595h2.81c.881 0 1.595.714 1.595 1.595v2.81zM371 107.405c0 .881-.714 1.595-1.595 1.595h-2.81a1.595 1.595 0 01-1.595-1.595v-2.81c0-.881.714-1.595 1.595-1.595h2.81c.881 0 1.595.714 1.595 1.595v2.81z"/><path fill="#9B5C8F" d="M119.879 165.391l6.41 15.716c-1.104-.61-2.076-1.145-3.045-1.684-8.255-4.597-16.508-9.198-24.773-13.777-.343-.189-.799-.245-1.203-.245-20.485-.012-40.969.009-61.454-.02-7.495-.011-13.533-5.171-14.874-12.393-.11-.594-.17-1.206-.171-1.81-.01-17.114.002-34.227-.016-51.34-.007-6.674 4.866-12.792 11.605-14.251a18.155 18.155 0 013.818-.414c43.475-.021 86.949-.018 130.424-.017 7.93 0 13.324 5.014 14.941 10.996.325 1.202.513 2.48.515 3.724.033 16.926.016 33.853.026 50.779.004 6.544-4.667 12.771-11.56 14.301a17.864 17.864 0 01-3.816.416c-15.24.028-30.481.019-45.722.019h-1.105zm-56.331-37.71c.116.359.19.573.255.79 1.314 4.342 2.829 8.61 4.767 12.718 2.5 5.304 5.523 10.264 9.732 14.405a9.022 9.022 0 002.578 1.771c2.722 1.219 5.312.053 6.347-2.737.489-1.318.45-2.675.448-4.063-.007-3.598.06-7.201.258-10.793.161-2.909.452-5.82.872-8.703.652-4.475 1.364-8.946 2.23-13.384 1.056-5.417 2.427-10.753 5.004-15.699.502-.963.631-2.029.47-3.131-.349-2.389-2.211-4.374-4.569-4.816-2.638-.495-4.828.439-6.039 2.741a52.746 52.746 0 00-2.43 5.283c-1.924 4.907-3.181 10.008-4.083 15.189-.647 3.721-1.154 7.466-1.707 11.202-.186 1.257-.323 2.521-.485 3.806-.075-.054-.129-.072-.145-.108a10.105 10.105 0 01-.24-.58c-2.261-6.024-3.889-12.224-5.201-18.516-.361-1.729-.681-3.498-1.313-5.135-1.414-3.66-5.594-3.677-7.743-1.567-.723.71-1.365 1.56-1.84 2.455-3.819 7.187-7.59 14.398-11.376 21.603l-2.974 5.657c-.263-1.089-.527-2.058-.729-3.04-1.217-5.941-2.49-11.872-3.604-17.832-.834-4.468-1.455-8.975-2.176-13.464-.209-1.3-.535-2.541-1.413-3.601-1.576-1.903-5.483-1.75-7.312-.614-1.925 1.196-2.865 3.418-2.439 5.975.863 5.174 1.664 10.361 2.649 15.513 1.323 6.917 2.666 13.834 4.252 20.693 1.019 4.403 2.452 8.712 3.78 13.039.453 1.475 1.187 2.853 2.322 3.961 1.175 1.148 2.46 1.449 3.897.657a11.557 11.557 0 002.709-2.071c2.375-2.468 4.08-5.417 5.625-8.441 2.522-4.935 4.96-9.914 7.438-14.871.699-1.394 1.414-2.778 2.185-4.292zm69.653-5.471c-.059-.838-.135-1.675-.175-2.514-.146-3.065-.875-5.981-2.103-8.795-4.048-9.286-14.061-11.61-21.266-8.687-3.74 1.517-6.453 4.261-8.636 7.558-4.436 6.697-6.321 14.07-5.787 22.086.206 3.085.867 6.035 2.101 8.872 3.469 7.979 11.044 10.89 18.336 9.611 4.301-.755 7.605-3.161 10.215-6.541 4.904-6.347 7.174-13.606 7.315-21.59zm3.012 7.2c.065 1.072.12 2.145.199 3.216.222 2.987.982 5.829 2.244 8.549 3.642 7.854 11.333 10.512 18.478 9.107 4.371-.859 7.662-3.469 10.261-6.981 4.727-6.385 6.87-13.624 6.88-21.515.003-2.308-.212-4.615-.811-6.865-.986-3.705-2.554-7.131-5.456-9.709-4.415-3.922-9.626-4.988-15.305-3.626-4.15.996-7.233 3.616-9.71 6.982-4.556 6.193-6.718 13.171-6.78 20.842z"/><path fill="#FFF" d="M63.548 127.681c-.771 1.515-1.486 2.898-2.183 4.291-2.479 4.957-4.916 9.936-7.438 14.871-1.546 3.024-3.25 5.973-5.625 8.441a11.57 11.57 0 01-2.709 2.071c-1.437.792-2.722.491-3.897-.657-1.135-1.108-1.869-2.486-2.322-3.961-1.328-4.327-2.761-8.636-3.78-13.039-1.586-6.859-2.929-13.776-4.252-20.693-.985-5.151-1.786-10.338-2.649-15.513-.426-2.557.514-4.779 2.439-5.975 1.829-1.135 5.736-1.289 7.312.614.878 1.06 1.204 2.3 1.413 3.601.722 4.489 1.342 8.996 2.176 13.464 1.114 5.96 2.387 11.891 3.604 17.832.201.981.466 1.95.729 3.04l2.974-5.657c3.786-7.205 7.557-14.417 11.376-21.603a10.251 10.251 0 011.84-2.455c2.149-2.11 6.329-2.093 7.743 1.567.632 1.637.953 3.406 1.313 5.135 1.313 6.292 2.94 12.492 5.201 18.516.073.196.154.389.24.58.016.036.07.054.145.108.162-1.284.299-2.549.485-3.806.553-3.736 1.06-7.481 1.707-11.202.901-5.182 2.159-10.282 4.083-15.189a52.728 52.728 0 012.43-5.283c1.211-2.302 3.4-3.235 6.039-2.741 2.357.442 4.22 2.427 4.569 4.816.161 1.102.032 2.168-.47 3.131-2.578 4.946-3.948 10.282-5.004 15.699-.866 4.438-1.578 8.909-2.23 13.384a98.77 98.77 0 00-.872 8.703c-.198 3.592-.265 7.195-.258 10.793.002 1.389.041 2.745-.448 4.063-1.035 2.79-3.625 3.956-6.347 2.737a9.022 9.022 0 01-2.578-1.771c-4.208-4.142-7.231-9.101-9.732-14.405-1.938-4.108-3.452-8.376-4.767-12.718-.067-.216-.14-.43-.257-.789zM133.201 122.21c-.141 7.983-2.411 15.243-7.314 21.59-2.61 3.379-5.915 5.786-10.215 6.541-7.292 1.279-14.867-1.632-18.336-9.611-1.234-2.837-1.895-5.787-2.101-8.872-.534-8.016 1.351-15.389 5.787-22.086 2.183-3.296 4.896-6.041 8.636-7.558 7.206-2.923 17.218-.599 21.266 8.687 1.227 2.814 1.956 5.73 2.103 8.795.039.839.115 1.677.174 2.514zm-11.342.818c.051-3.07-.625-5.95-2.237-8.563-1.401-2.271-3.683-2.84-5.988-1.498a8.1 8.1 0 00-2.046 1.679c-4.151 4.826-5.949 10.411-5.088 16.746.296 2.181 1.004 4.277 2.374 6.071 1.216 1.594 2.935 2.075 4.797 1.325 1.693-.682 3.045-1.842 4.145-3.26 2.85-3.674 3.883-7.951 4.043-12.5zM136.213 129.41c.062-7.67 2.224-14.648 6.779-20.841 2.477-3.367 5.56-5.987 9.71-6.982 5.679-1.362 10.89-.296 15.305 3.626 2.902 2.578 4.47 6.004 5.456 9.709.599 2.25.814 4.557.811 6.865-.011 7.891-2.154 15.129-6.88 21.515-2.599 3.512-5.89 6.122-10.261 6.981-7.145 1.404-14.836-1.254-18.478-9.107-1.262-2.721-2.022-5.562-2.244-8.549-.078-1.072-.133-2.146-.198-3.217zm26.894-6.488c-.143-1.225-.195-2.468-.448-3.67-.415-1.975-1.042-3.895-2.373-5.476-1.024-1.216-2.325-1.732-3.935-1.402-1.71.35-2.93 1.412-3.977 2.698-3.491 4.29-5.189 9.193-4.88 14.738.144 2.579.839 5.022 2.235 7.213 1.364 2.141 3.367 2.663 5.641 1.527 1.757-.878 3.139-2.205 4.221-3.818 2.389-3.563 3.36-7.55 3.516-11.81z"/><path fill="#9B5C8F" d="M121.859 123.028c-.16 4.549-1.193 8.827-4.043 12.501-1.1 1.418-2.452 2.579-4.145 3.26-1.863.75-3.581.269-4.797-1.325-1.37-1.794-2.077-3.89-2.374-6.071-.861-6.335.937-11.92 5.088-16.746a8.139 8.139 0 012.046-1.679c2.306-1.343 4.587-.773 5.988 1.498 1.612 2.612 2.288 5.492 2.237 8.562zM163.107 122.922c-.156 4.26-1.126 8.247-3.516 11.809-1.082 1.614-2.463 2.94-4.221 3.818-2.274 1.136-4.277.614-5.641-1.527-1.396-2.191-2.091-4.634-2.235-7.213-.309-5.544 1.389-10.448 4.88-14.738 1.046-1.286 2.267-2.348 3.977-2.698 1.61-.33 2.911.186 3.935 1.402 1.331 1.581 1.958 3.501 2.373 5.476.253 1.203.305 2.446.448 3.671z"/></svg>