<svg xmlns="http://www.w3.org/2000/svg" xmlns:xlink="http://www.w3.org/1999/xlink" width="398" height="262.335"><path fill="#FFF" d="M307 170.915c0 1.65-.225 3-.5 3s-.5-1.35-.5-3v-8.25c0-1.65.225-3 .5-3s.5 1.35.5 3v8.25z"/><defs><filter id="b" filterUnits="userSpaceOnUse" x="306" y="159.665" width="1" height="14.25"><feColorMatrix values="-1 0 0 0 1 0 -1 0 0 1 0 0 -1 0 1 0 0 0 1 0" color-interpolation-filters="sRGB" result="source"/></filter></defs><mask maskUnits="userSpaceOnUse" x="306" y="159.665" width="1" height="14.25" id="c"><g filter="url(#b)"><image overflow="visible" width="5" height="19" xlink:href="2CC6AEDA.jpg" transform="translate(304 157.335)"/></g></mask><g opacity=".87" mask="url(#c)"><path fill="#EFEFEF" d="M307 170.915c0 1.65-.225 3-.5 3s-.5-1.35-.5-3v-8.25c0-1.65.225-3 .5-3s.5 1.35.5 3v8.25z"/></g><path fill="#FFF" d="M297 170.915c0 1.65-.225 3-.5 3s-.5-1.35-.5-3v-8.25c0-1.65.225-3 .5-3s.5 1.35.5 3v8.25z"/><defs><filter id="d" filterUnits="userSpaceOnUse" x="296" y="159.665" width="1" height="14.25"><feColorMatrix values="-1 0 0 0 1 0 -1 0 0 1 0 0 -1 0 1 0 0 0 1 0" color-interpolation-filters="sRGB" result="source"/></filter></defs><mask maskUnits="userSpaceOnUse" x="296" y="159.665" width="1" height="14.25" id="e"><g filter="url(#d)"><image overflow="visible" width="6" height="19" xlink:href="2CC6AEDE.jpg" transform="translate(294 157.335)"/></g></mask><g opacity=".87" mask="url(#e)"><path fill="#EFEFEF" d="M297 170.915c0 1.65-.225 3-.5 3s-.5-1.35-.5-3v-8.25c0-1.65.225-3 .5-3s.5 1.35.5 3v8.25z"/></g><path fill="#FFF" d="M291 172.335h21v15.33s.381 6.67-5.62 6.67h-9.122s-6.258-.338-6.258-7.17v-14.83z"/><path fill="none" stroke="#FFF" stroke-width="11" stroke-miterlimit="10" d="M181.5 166.335v30s-.928 13.5-16.178 13.5h-59s-16.034-2.021-15.892 13.489l-.112 10.511s-.746 11 16.004 11h181s14.23.591 14.365-14.621l-.026-41.879"/><path fill="#FFF" d="M265 172.335c0 3.3-2.7 6-6 6H101c-3.3 0-6-2.7-6-6v-97c0-3.3 2.7-6 6-6h158c3.3 0 6 2.7 6 6v97z"/><path fill="#E2E0E1" d="M249 161.335a3 3 0 01-3 3h-15a3 3 0 01-3-3v-15a3 3 0 013-3h15a3 3 0 013 3v15zM249 131.335a3 3 0 01-3 3h-15a3 3 0 01-3-3v-15a3 3 0 013-3h15a3 3 0 013 3v15zM249 101.335a3 3 0 01-3 3h-15a3 3 0 01-3-3v-15a3 3 0 013-3h15a3 3 0 013 3v15zM130 161.335a3 3 0 01-3 3h-15a3 3 0 01-3-3v-15a3 3 0 013-3h15a3 3 0 013 3v15zM130 131.335a3 3 0 01-3 3h-15a3 3 0 01-3-3v-15a3 3 0 013-3h15a3 3 0 013 3v15zM160 161.335a3 3 0 01-3 3h-15a3 3 0 01-3-3v-15a3 3 0 013-3h15a3 3 0 013 3v15zM160 131.335a3 3 0 01-3 3h-15a3 3 0 01-3-3v-15a3 3 0 013-3h15a3 3 0 013 3v15zM190 161.335a3 3 0 01-3 3h-15a3 3 0 01-3-3v-15a3 3 0 013-3h15a3 3 0 013 3v15zM190 131.335a3 3 0 01-3 3h-15a3 3 0 01-3-3v-15a3 3 0 013-3h15a3 3 0 013 3v15zM190 101.335a3 3 0 01-3 3h-15a3 3 0 01-3-3v-15a3 3 0 013-3h15a3 3 0 013 3v15zM220 161.335a3 3 0 01-3 3h-15a3 3 0 01-3-3v-15a3 3 0 013-3h15a3 3 0 013 3v15zM220 131.335a3 3 0 01-3 3h-15a3 3 0 01-3-3v-15a3 3 0 013-3h15a3 3 0 013 3v15zM220 101.335a3 3 0 01-3 3h-15a3 3 0 01-3-3v-15a3 3 0 013-3h15a3 3 0 013 3v15z"/><g><path fill="#FFF" d="M265 59.335a6 6 0 01-6 6H101a6 6 0 01-6-6v-25a6 6 0 016-6h158a6 6 0 016 6v25z"/></g><g><path fill="#FFF" d="M233 44.335a3 3 0 01-3 3h-14a3 3 0 01-3-3v-32a3 3 0 013-3h14a3 3 0 013 3v32zM191 44.335a3 3 0 01-3 3h-14a3 3 0 01-3-3v-32a3 3 0 013-3h14a3 3 0 013 3v32zM149 44.335a3 3 0 01-3 3h-14a3 3 0 01-3-3v-32a3 3 0 013-3h14a3 3 0 013 3v32z"/><path fill="none" stroke="#E2E0E1" stroke-width="3" stroke-miterlimit="10" d="M150.5 28.335v16.658c0 1.65-1.017 2.842-2.667 2.842H131c-1.65 0-3.5-1.191-3.5-2.842V28.335M192.5 28.335v16.658c0 1.65-1.017 2.842-2.667 2.842H173c-1.65 0-3.5-1.191-3.5-2.842V28.335M234.5 28.335v16.658c0 1.65-1.017 2.842-2.667 2.842H215c-1.65 0-3.5-1.191-3.5-2.842V28.335"/></g><path fill="#EFC267" d="M303.562 30.145l-32.885 56.204 33.784-.209-56.677 59.82 13.004-46.55-19.384.119 24.498-69.151z"/></svg>