<svg xmlns="http://www.w3.org/2000/svg" width="150" height="200" viewBox="0 0 210 297"><rect width="192.344" height="24.084" x="7.746" y="25.244" rx="7.425" ry="7.425" fill="#616161"/><rect ry="7.425" rx="7.425" y="65.836" x="7.965" height="24.084" width="192.344" fill="#616161"/><rect ry="7.425" rx="7.425" y="178.286" x="8.485" height="24.084" width="192.344" fill="#616161"/><rect width="192.344" height="24.084" x="7.964" y="221.348" rx="7.425" ry="7.425" fill="#616161"/><rect ry="7.425" rx="7.425" y="263.252" x="7.964" height="24.084" width="192.344" fill="#616161"/><rect width="76.244" height="65.316" x="7.965" y="101.8" rx="7.425" ry="7.425" fill="#6664cb"/><rect width="7.899" height="7.594" x="26.487" y="107.781" rx=".793" ry=".793" fill="#fff"/><rect ry=".793" rx=".793" y="107.79" x="40.844" height="7.594" width="7.899" fill="#fff"/><rect width="7.899" height="7.594" x="55.402" y="107.724" rx=".793" ry=".793" fill="#fff"/><rect ry=".793" rx=".793" y="107.964" x="70.365" height="7.594" width="7.899" fill="#fff"/><rect width="7.899" height="7.594" x="13.623" y="122.622" rx=".793" ry=".793" fill="#fff"/><rect ry=".793" rx=".793" y="122.688" x="26.525" height="7.594" width="7.899" fill="#fff"/><rect width="7.899" height="7.594" x="40.882" y="122.697" rx=".793" ry=".793" fill="#fff"/><rect ry=".793" rx=".793" y="122.631" x="55.44" height="7.594" width="7.899" fill="#fff"/><rect width="7.899" height="7.594" x="70.403" y="122.871" rx=".793" ry=".793" fill="#fff"/><rect ry=".793" rx=".793" y="135.966" x="13.71" height="7.594" width="7.899" fill="#fff"/><rect width="7.899" height="7.594" x="26.613" y="136.031" rx=".793" ry=".793" fill="#fff"/><rect ry=".793" rx=".793" y="136.04" x="40.97" height="7.594" width="7.899" fill="#fff"/><rect width="7.899" height="7.594" x="55.528" y="135.974" rx=".793" ry=".793" fill="#fff"/><rect ry=".793" rx=".793" y="136.214" x="70.491" height="7.594" width="7.899" fill="#fff"/><rect width="7.899" height="7.594" x="13.566" y="149.682" rx=".793" ry=".793" fill="#fff"/><rect ry=".793" rx=".793" y="149.747" x="26.468" height="7.594" width="7.899" fill="#fff"/><rect width="7.899" height="7.594" x="40.825" y="149.756" rx=".793" ry=".793" fill="#fff"/></svg>