<svg xmlns="http://www.w3.org/2000/svg" width="150" height="200" viewBox="0 0 210 297"><rect width="192.344" height="24.084" x="7.746" y="25.244" rx="7.425" ry="7.425" fill="#616161"/><rect ry="7.425" rx="7.425" y="65.836" x="7.965" height="24.084" width="192.344" fill="#616161"/><rect ry="7.425" rx="7.425" y="178.286" x="8.485" height="24.084" width="192.344" fill="#616161"/><rect width="192.344" height="24.084" x="7.964" y="221.348" rx="7.425" ry="7.425" fill="#616161"/><rect ry="7.425" rx="7.425" y="263.252" x="7.964" height="24.084" width="192.344" fill="#616161"/><rect width="76.244" height="65.316" x="66.676" y="101.014" rx="7.425" ry="7.425" fill="#6664cb"/><rect width="7.899" height="7.594" x="85.198" y="106.995" rx=".793" ry=".793" fill="#fff"/><rect ry=".793" rx=".793" y="107.004" x="99.555" height="7.594" width="7.899" fill="#fff"/><rect width="7.899" height="7.594" x="114.113" y="106.938" rx=".793" ry=".793" fill="#fff"/><rect ry=".793" rx=".793" y="107.178" x="129.076" height="7.594" width="7.899" fill="#fff"/><rect width="7.899" height="7.594" x="72.334" y="121.836" rx=".793" ry=".793" fill="#fff"/><rect ry=".793" rx=".793" y="121.902" x="85.236" height="7.594" width="7.899" fill="#fff"/><rect width="7.899" height="7.594" x="99.593" y="121.911" rx=".793" ry=".793" fill="#fff"/><rect ry=".793" rx=".793" y="121.845" x="114.151" height="7.594" width="7.899" fill="#fff"/><rect width="7.899" height="7.594" x="129.114" y="122.085" rx=".793" ry=".793" fill="#fff"/><rect ry=".793" rx=".793" y="135.18" x="72.421" height="7.594" width="7.899" fill="#fff"/><rect width="7.899" height="7.594" x="85.324" y="135.245" rx=".793" ry=".793" fill="#fff"/><rect ry=".793" rx=".793" y="135.254" x="99.681" height="7.594" width="7.899" fill="#fff"/><rect width="7.899" height="7.594" x="114.239" y="135.188" rx=".793" ry=".793" fill="#fff"/><rect ry=".793" rx=".793" y="135.428" x="129.202" height="7.594" width="7.899" fill="#fff"/><rect width="7.899" height="7.594" x="72.277" y="148.896" rx=".793" ry=".793" fill="#fff"/><rect ry=".793" rx=".793" y="148.961" x="85.179" height="7.594" width="7.899" fill="#fff"/><rect width="7.899" height="7.594" x="99.536" y="148.97" rx=".793" ry=".793" fill="#fff"/></svg>