<svg xmlns="http://www.w3.org/2000/svg" viewBox="0 0 210 297" height="200" width="150"><rect ry="7.425" rx="7.425" y="101.824" x="7.823" height="108.505" width="191.638" fill="#6664cb"/><rect ry="7.425" rx="7.425" y="25.244" x="7.746" height="24.084" width="192.344" fill="#616161"/><rect width="192.344" height="24.084" x="7.965" y="65.836" rx="7.425" ry="7.425" fill="#616161"/><rect ry="7.425" rx="7.425" y="221.348" x="7.964" height="24.084" width="192.344" fill="#616161"/><rect width="192.344" height="24.084" x="7.964" y="263.252" rx="7.425" ry="7.425" fill="#616161"/><rect ry="7.425" rx="7.425" y="111.591" x="28.508" height="16.217" width="17.559" fill="#fff"/><rect width="17.559" height="16.217" x="60.387" y="111.74" rx="7.425" ry="7.425" fill="#fff"/><rect ry="7.425" rx="7.425" y="112" x="94.655" height="16.217" width="17.559" fill="#fff"/><rect width="17.559" height="16.217" x="128.677" y="112.089" rx="7.425" ry="7.425" fill="#fff"/><rect ry="7.425" rx="7.425" y="112.123" x="160.601" height="16.217" width="17.559" fill="#fff"/><rect width="17.559" height="16.217" x="28.55" y="135.94" rx="7.425" ry="7.425" fill="#fff"/><rect ry="7.425" rx="7.425" y="136.09" x="60.428" height="16.217" width="17.559" fill="#fff"/><rect width="17.559" height="16.217" x="94.697" y="136.349" rx="7.425" ry="7.425" fill="#fff"/><rect ry="7.425" rx="7.425" y="136.439" x="128.719" height="16.217" width="17.559" fill="#fff"/><rect width="17.559" height="16.217" x="160.642" y="136.473" rx="7.425" ry="7.425" fill="#fff"/><rect ry="7.425" rx="7.425" y="161.067" x="28.55" height="16.217" width="17.559" fill="#fff"/><rect width="17.559" height="16.217" x="60.428" y="161.217" rx="7.425" ry="7.425" fill="#fff"/><rect ry="7.425" rx="7.425" y="161.476" x="94.697" height="16.217" width="17.559" fill="#fff"/><rect width="17.559" height="16.217" x="128.719" y="161.565" rx="7.425" ry="7.425" fill="#fff"/><rect ry="7.425" rx="7.425" y="161.6" x="160.642" height="16.217" width="17.559" fill="#fff"/><rect width="17.559" height="16.217" x="28.55" y="186.194" rx="7.425" ry="7.425" fill="#fff"/><rect ry="7.425" rx="7.425" y="186.343" x="60.428" height="16.217" width="17.559" fill="#fff"/></svg>